# xmcd CD database file
#
# Track frame offsets:
#	150
#	15387
#	25467
#	36282
#	48860
#	58455
#	68477
#	79467
#	89625
#	103180
#	115090
#	128630
#	139452
#	152397
#	163730
#	175017
#	183915
#	196650
#	208517
#	220670
#
# Disc length: 3079 seconds
#
# Revision: 0
# Processed by: cddbd v1.4PL0 Copyright (c) Steve Scherf et al.
# Submitted via: CDex 1.40Beta8
#
DISCID=130c0514
DTITLE=Os Minuanos - Raízes dos Pampas
DYEAR=1900
DGENRE=Country
TTITLE0=Fole Furado
TTITLE1=Homenagem Farroupilha
TTITLE2=Terra Buena
TTITLE3=Saudade
TTITLE4=Velha Morada
TTITLE5=Costume que Acostuma
TTITLE6=Chico Moço
TTITLE7=Tropeiro Errante
TTITLE8=Noite estrelada
TTITLE9=Caminho da Serra
TTITLE10=Pagos do Sul
TTITLE11=cachaça
TTITLE12=Pancada na Bola
TTITLE13=Salamanca do Jarau
TTITLE14=Ratoeira
TTITLE15=Princesa do Sul
TTITLE16=Boi Pintado
TTITLE17=Chotes
TTITLE18=Calça Larga
TTITLE19=Gaúcho de Galpão
EXTD=ID3G: 2
EXTT0=
EXTT1=
EXTT2=
EXTT3=
EXTT4=
EXTT5=
EXTT6=
EXTT7=
EXTT8=
EXTT9=
EXTT10=
EXTT11=
EXTT12=
EXTT13=
EXTT14=
EXTT15=
EXTT16=
EXTT17=
EXTT18=
EXTT19=
PLAYORDER=
